<?xml version="1.0" encoding="utf-8"?>
<!-- Generator: Adobe Illustrator 16.0.3, SVG Export Plug-In . SVG Version: 6.00 Build 0)  -->
<!DOCTYPE svg PUBLIC "-//W3C//DTD SVG 1.1//EN" "http://www.w3.org/Graphics/SVG/1.1/DTD/svg11.dtd">
<svg version="1.1" id="Calque_1" xmlns="http://www.w3.org/2000/svg" xmlns:xlink="http://www.w3.org/1999/xlink" x="0px" y="0px"
	 width="595.275px" height="841.89px" viewBox="0 0 595.275 841.89" enable-background="new 0 0 595.275 841.89"
	 xml:space="preserve">
<g>
	<path d="M364.04,400.695v-8.508c0-4.254-3.449-7.588-7.589-7.588c-4.254,0-7.703,3.334-7.703,7.588v8.508H364.04z M318.333,441.51
		c0,16.211,9.197,26.559,26.559,24.719v-13.796c-7.474,0.46-11.268-2.529-11.268-10.923v-60.705h-15.291V441.51z M185.279,413.342
		c0-15.981-11.842-28.743-28.973-28.743c-8.738,0-16.441,4.024-21.27,10.348c-4.944-6.324-12.417-10.348-21.27-10.348
		c-17.016,0-28.858,12.762-28.858,28.743c0,16.766,0,33.532,0,50.297c0,1.438,1.1,2.704,2.815,2.704h12.246v-53.231
		c0-7.588,5.404-13.682,13.797-13.682c8.277,0,13.681,6.093,13.681,13.682v53.231h15.292v-53.231
		c0-7.588,5.174-13.682,13.566-13.682c8.278,0,13.796,6.093,13.796,13.682v53.231h15.176V413.342z M261.803,466.344H249.5h-15.176
		v-14.716v-14.717c0-9.083-6.783-16.556-15.176-16.556c-8.393,0-15.176,7.243-15.176,16.096c0,8.738,6.783,15.177,15.521,15.177
		h8.738v14.716h-10.578c-16.556,0-28.972-13.337-28.972-29.893c0-16.786,12.531-30.812,30.467-30.812
		c17.82,0,30.352,14.026,30.352,31.272v14.717h12.302v-19.546c0-15.061,10.577-26.443,26.673-26.443
		c16.556,0,26.329,10.922,26.329,26.443v2.645h-15.177v-2.989c0-3.334-1.149-11.267-11.152-11.267
		c-6.668,0-11.497,4.599-11.497,11.267v19.891v14.716H261.803z M377.722,432.082v20.351H364.04v-45.299h-15.177v45.299v13.911
		h15.177h13.682h15.176v-13.911v-20.695c0-6.668,4.829-11.267,11.497-11.267c10.003,0,11.152,7.933,11.152,11.267v34.606
		c4.027,0,8.056,0,12.083,0c1.524,0.033,3.094-0.854,3.094-4.092v-30.17c0-15.521-9.773-26.443-26.329-26.443
		C388.299,405.639,377.722,417.021,377.722,432.082z"/>
	<path fill="none" stroke="#000000" stroke-width="7.0866" stroke-miterlimit="22.9256" d="M89.663,359.726H425.97
		c15.591,0,28.347,12.755,28.347,28.346v69.308c0,15.59-12.756,28.346-28.347,28.346H89.663c-15.59,0-28.346-12.756-28.346-28.346
		v-69.308C61.316,372.481,74.072,359.726,89.663,359.726z"/>
	<polygon fill-rule="evenodd" clip-rule="evenodd" points="457.822,356.164 381.686,356.164 457.822,433.413 	"/>
	<polygon fill-rule="evenodd" clip-rule="evenodd" points="457.822,278.914 381.686,278.914 457.822,356.164 	"/>
	<polygon fill-rule="evenodd" clip-rule="evenodd" points="533.959,356.164 457.822,356.164 533.959,433.413 	"/>
</g>
</svg>
